<?xml version="1.0" encoding="UTF-8"?>
<svg viewBox="0 0 1440 669" preserveAspectRatio = "none" version="1.1" xmlns="http://www.w3.org/2000/svg" xmlns:xlink="http://www.w3.org/1999/xlink">
    <!-- Generator: Sketch 51.3 (57544) - http://www.bohemiancoding.com/sketch -->
    <title>Spirograph</title>
    <desc>Created with Sketch.</desc>
    <defs>
        <rect id="path-1" x="0" y="0" width="1440" height="830"></rect>
        <linearGradient x1="247.423077%" y1="-35.1735195%" x2="225.468061%" y2="138.40508%" id="linearGradient-3">
            <stop stop-color="#2AF598" stop-opacity="0" offset="0%"></stop>
            <stop stop-color="#2AF598" stop-opacity="0.15" offset="39.5547327%"></stop>
            <stop stop-color="#08AEEA" stop-opacity="0.15" offset="65.3992052%"></stop>
            <stop stop-color="#08AEEA" stop-opacity="0" offset="100%"></stop>
        </linearGradient>
    </defs>
    <g id="Homepage_6.0" stroke="none" stroke-width="1" fill="none" fill-rule="evenodd">
        <g id="Homepage/New-Employee-style3-Copy" transform="translate(0.000000, -165.000000)">
            <g id="Spirograph" transform="translate(0.000000, 113.000000)">
                <mask id="mask-2" fill="white">
                    <use xlink:href="#path-1"></use>
                </mask>
                <g id="Mask" fill-rule="nonzero"></g>
                <g id="Group-2" mask="url(#mask-2)" stroke="url(#linearGradient-3)" stroke-width="0.710000038">
                    <g transform="translate(613.000000, 234.500000) rotate(-26.000000) translate(-613.000000, -234.500000) translate(-630.000000, -466.000000)">
                        <rect id="37" transform="translate(554.600898, 458.630286) rotate(31.980198) translate(-554.600898, -458.630286) " x="333.118377" y="226.787111" width="442.965043" height="463.686351" rx="11.3600006"></rect>
                        <rect id="38" transform="translate(563.542378, 463.815204) rotate(32.821782) translate(-563.542378, -463.815204) " x="342.059857" y="231.972028" width="442.965043" height="463.686351" rx="11.3600006"></rect>
                        <rect id="39" transform="translate(572.416492, 470.352246) rotate(33.663366) translate(-572.416492, -470.352246) " x="350.933971" y="238.50907" width="442.965043" height="463.686351" rx="11.3600006"></rect>
                        <rect id="40" transform="translate(580.513131, 476.110969) rotate(34.504950) translate(-580.513131, -476.110969) " x="359.03061" y="244.267794" width="442.965043" height="463.686351" rx="11.3600006"></rect>
                        <rect id="41" transform="translate(589.961720, 482.511376) rotate(35.346535) translate(-589.961720, -482.511376) " x="368.479198" y="250.6682" width="442.965043" height="463.686351" rx="11.3600006"></rect>
                        <rect id="42" transform="translate(598.632417, 488.133139) rotate(36.188119) translate(-598.632417, -488.133139) " x="377.149895" y="256.289963" width="442.965043" height="463.686351" rx="11.3600006"></rect>
                        <rect id="43" transform="translate(607.234916, 493.686204) rotate(37.029703) translate(-607.234916, -493.686204) " x="385.752395" y="261.843028" width="442.965043" height="463.686351" rx="11.3600006"></rect>
                        <rect id="44" transform="translate(616.478928, 500.590617) rotate(37.871287) translate(-616.478928, -500.590617) " x="394.996406" y="268.747441" width="442.965043" height="463.686351" rx="11.3600006"></rect>
                        <rect id="45" transform="translate(624.944534, 506.005923) rotate(38.712871) translate(-624.944534, -506.005923) " x="403.462013" y="274.162747" width="442.965043" height="463.686351" rx="11.3600006"></rect>
                        <rect id="46" transform="translate(633.341474, 512.772370) rotate(39.554455) translate(-633.341474, -512.772370) " x="411.858952" y="280.929195" width="442.965043" height="463.686351" rx="11.3600006"></rect>
                        <rect id="47" transform="translate(642.379500, 518.049534) rotate(40.396040) translate(-642.379500, -518.049534) " x="420.896978" y="286.206359" width="442.965043" height="463.686351" rx="11.3600006"></rect>
                        <rect id="48" transform="translate(650.638740, 523.967606) rotate(41.237624) translate(-650.638740, -523.967606) " x="429.156219" y="292.124431" width="442.965043" height="463.686351" rx="11.3600006"></rect>
                        <rect id="49" transform="translate(659.538857, 530.526535) rotate(42.079208) translate(-659.538857, -530.526535) " x="438.056336" y="298.683359" width="442.965043" height="463.686351" rx="11.3600006"></rect>
                        <rect id="50" transform="translate(668.369889, 535.596026) rotate(42.920792) translate(-668.369889, -535.596026) " x="446.887368" y="303.752851" width="442.965043" height="463.686351" rx="11.3600006"></rect>
                        <rect id="51" transform="translate(677.131769, 542.016403) rotate(43.762376) translate(-677.131769, -542.016403) " x="455.649248" y="310.173228" width="442.965043" height="463.686351" rx="11.3600006"></rect>
                        <rect id="52" transform="translate(685.824443, 547.657401) rotate(44.603960) translate(-685.824443, -547.657401) " x="464.341922" y="315.814225" width="442.965043" height="463.686351" rx="11.3600006"></rect>
                        <rect id="53" transform="translate(695.157755, 553.939200) rotate(45.445545) translate(-695.157755, -553.939200) " x="473.675233" y="322.096024" width="442.965043" height="463.686351" rx="11.3600006"></rect>
                        <rect id="54" transform="translate(703.711921, 560.151738) rotate(46.287129) translate(-703.711921, -560.151738) " x="482.2294" y="328.308563" width="442.965043" height="463.686351" rx="11.3600006"></rect>
                        <rect id="55" transform="translate(712.196814, 565.584967) rotate(47.128713) translate(-712.196814, -565.584967) " x="490.714293" y="333.741792" width="442.965043" height="463.686351" rx="11.3600006"></rect>
                        <rect id="56" transform="translate(721.322322, 572.369200) rotate(47.970297) translate(-721.322322, -572.369200) " x="499.8398" y="340.526025" width="442.965043" height="463.686351" rx="11.3600006"></rect>
                        <rect id="57" transform="translate(729.668706, 577.664159) rotate(48.811881) translate(-729.668706, -577.664159) " x="508.186184" y="345.820984" width="442.965043" height="463.686351" rx="11.3600006"></rect>
                        <rect id="58" transform="translate(737.945883, 583.600187) rotate(49.653465) translate(-737.945883, -583.600187) " x="516.463362" y="351.757012" width="442.965043" height="463.686351" rx="11.3600006"></rect>
                        <rect id="59" transform="translate(747.573666, 590.177382) rotate(50.495050) translate(-747.573666, -590.177382) " x="526.091145" y="358.334206" width="442.965043" height="463.686351" rx="11.3600006"></rect>
                        <rect id="60" transform="translate(755.712602, 595.265597) rotate(51.336634) translate(-755.712602, -595.265597) " x="534.230081" y="363.422422" width="442.965043" height="463.686351" rx="11.3600006"></rect>
                        <rect id="61" transform="translate(764.492413, 601.705307) rotate(52.178218) translate(-764.492413, -601.705307) " x="543.009891" y="369.862131" width="442.965043" height="463.686351" rx="11.3600006"></rect>
                        <rect id="62" transform="translate(773.913195, 607.366394) rotate(53.019802) translate(-773.913195, -607.366394) " x="552.430673" y="375.523218" width="442.965043" height="463.686351" rx="11.3600006"></rect>
                        <rect id="63" transform="translate(782.555299, 612.959102) rotate(53.861386) translate(-782.555299, -612.959102) " x="561.072778" y="381.115927" width="442.965043" height="463.686351" rx="11.3600006"></rect>
                        <rect id="64" transform="translate(790.418854, 619.903776) rotate(54.702970) translate(-790.418854, -619.903776) " x="568.936332" y="388.060601" width="442.965043" height="463.686351" rx="11.3600006"></rect>
                        <rect id="65" transform="translate(799.633639, 625.360258) rotate(55.544554) translate(-799.633639, -625.360258) " x="578.151118" y="393.517083" width="442.965043" height="463.686351" rx="11.3600006"></rect>
                        <rect id="66" transform="translate(808.780051, 631.459009) rotate(56.386139) translate(-808.780051, -631.459009) " x="587.29753" y="399.615833" width="442.965043" height="463.686351" rx="11.3600006"></rect>
                        <rect id="67" transform="translate(817.148381, 637.490157) rotate(57.227723) translate(-817.148381, -637.490157) " x="595.66586" y="405.646982" width="442.965043" height="463.686351" rx="11.3600006"></rect>
                        <rect id="68" transform="translate(826.158574, 642.743848) rotate(58.069307) translate(-826.158574, -642.743848) " x="604.676053" y="410.900673" width="442.965043" height="463.686351" rx="11.3600006"></rect>
                        <rect id="69" transform="translate(835.100951, 649.350586) rotate(58.910891) translate(-835.100951, -649.350586) " x="613.61843" y="417.507411" width="442.965043" height="463.686351" rx="11.3600006"></rect>
                        <rect id="70" transform="translate(843.265846, 655.180372) rotate(59.752475) translate(-843.265846, -655.180372) " x="621.783325" y="423.337197" width="442.965043" height="463.686351" rx="11.3600006"></rect>
                        <rect id="71" transform="translate(852.783130, 661.653652) rotate(60.594059) translate(-852.783130, -661.653652) " x="631.300608" y="429.810477" width="442.965043" height="463.686351" rx="11.3600006"></rect>
                        <rect id="72" transform="translate(860.813525, 667.350543) rotate(61.435644) translate(-860.813525, -667.350543) " x="639.331003" y="435.507368" width="442.965043" height="463.686351" rx="11.3600006"></rect>
                        <rect id="73" transform="translate(869.486930, 672.981434) rotate(62.277228) translate(-869.486930, -672.981434) " x="648.004409" y="441.138259" width="442.965043" height="463.686351" rx="11.3600006"></rect>
                        <rect id="74" transform="translate(878.803619, 679.256728) rotate(63.118812) translate(-878.803619, -679.256728) " x="657.321098" y="447.413553" width="442.965043" height="463.686351" rx="11.3600006"></rect>
                        <rect id="75" transform="translate(887.344118, 684.756584) rotate(63.960396) translate(-887.344118, -684.756584) " x="665.861597" y="452.913409" width="442.965043" height="463.686351" rx="11.3600006"></rect>
                        <rect id="76" transform="translate(895.818610, 690.901520) rotate(64.801980) translate(-895.818610, -690.901520) " x="674.336089" y="459.058345" width="442.965043" height="463.686351" rx="11.3600006"></rect>
                        <rect id="77" transform="translate(904.227409, 696.981809) rotate(65.643564) translate(-904.227409, -696.981809) " x="682.744888" y="465.138634" width="442.965043" height="463.686351" rx="11.3600006"></rect>
                        <rect id="78" transform="translate(913.280727, 702.997825) rotate(66.485149) translate(-913.280727, -702.997825) " x="691.798205" y="471.154649" width="442.965043" height="463.686351" rx="11.3600006"></rect>
                        <rect id="79" transform="translate(922.269026, 708.949954) rotate(67.326733) translate(-922.269026, -708.949954) " x="700.786505" y="477.106778" width="442.965043" height="463.686351" rx="11.3600006"></rect>
                        <rect id="80" transform="translate(930.482785, 714.838598) rotate(68.168317) translate(-930.482785, -714.838598) " x="709.000264" y="482.995422" width="442.965043" height="463.686351" rx="11.3600006"></rect>
                        <rect id="81" transform="translate(940.052017, 720.664171) rotate(69.009901) translate(-940.052017, -720.664171) " x="718.569496" y="488.820996" width="442.965043" height="463.686351" rx="11.3600006"></rect>
                        <rect id="82" transform="translate(948.137587, 727.137189) rotate(69.851485) translate(-948.137587, -727.137189) " x="726.655065" y="495.294013" width="442.965043" height="463.686351" rx="11.3600006"></rect>
                        <rect id="83" transform="translate(956.869535, 732.837920) rotate(70.693069) translate(-956.869535, -732.837920) " x="735.387013" y="500.994744" width="442.965043" height="463.686351" rx="11.3600006"></rect>
                        <rect id="84" transform="translate(966.248274, 739.186992) rotate(71.534653) translate(-966.248274, -739.186992) " x="744.765752" y="507.343816" width="442.965043" height="463.686351" rx="11.3600006"></rect>
                        <rect id="85" transform="translate(974.854471, 744.764701) rotate(72.376238) translate(-974.854471, -744.764701) " x="753.371949" y="512.921526" width="442.965043" height="463.686351" rx="11.3600006"></rect>
                        <rect id="86" transform="translate(983.398447, 750.281616) rotate(73.217822) translate(-983.398447, -750.281616) " x="761.915925" y="518.438441" width="442.965043" height="463.686351" rx="11.3600006"></rect>
                        <rect id="87" transform="translate(992.590536, 756.448317) rotate(74.059406) translate(-992.590536, -756.448317) " x="771.108014" y="524.605142" width="442.965043" height="463.686351" rx="11.3600006"></rect>
                        <rect id="88" transform="translate(1001.011445, 762.555227) rotate(74.900990) translate(-1001.011445, -762.555227) " x="779.528924" y="530.712052" width="442.965043" height="463.686351" rx="11.3600006"></rect>
                        <rect id="89" transform="translate(1009.371535, 768.602865) rotate(75.742574) translate(-1009.371535, -768.602865) " x="787.889013" y="536.75969" width="442.965043" height="463.686351" rx="11.3600006"></rect>
                        <rect id="90" transform="translate(1018.381179, 774.591767) rotate(76.584158) translate(-1018.381179, -774.591767) " x="796.898657" y="542.748591" width="442.965043" height="463.686351" rx="11.3600006"></rect>
                        <rect id="91" transform="translate(1027.331004, 779.812391) rotate(77.425743) translate(-1027.331004, -779.812391) " x="805.848483" y="547.969215" width="442.965043" height="463.686351" rx="11.3600006"></rect>
                        <rect id="92" transform="translate(1035.511650, 786.395555) rotate(78.267327) translate(-1035.511650, -786.395555) " x="814.029128" y="554.55238" width="442.965043" height="463.686351" rx="11.3600006"></rect>
                        <rect id="93" transform="translate(1045.053288, 792.211572) rotate(79.108911) translate(-1045.053288, -792.211572) " x="823.570767" y="560.368397" width="442.965043" height="463.686351" rx="11.3600006"></rect>
                        <rect id="94" transform="translate(1053.116945, 798.681198) rotate(79.950495) translate(-1053.116945, -798.681198) " x="831.634423" y="566.838023" width="442.965043" height="463.686351" rx="11.3600006"></rect>
                        <rect id="95" transform="translate(1061.832817, 804.384856) rotate(80.792079) translate(-1061.832817, -804.384856) " x="840.350295" y="572.541681" width="442.965043" height="463.686351" rx="11.3600006"></rect>
                        <rect id="96" transform="translate(1071.201475, 810.033241) rotate(81.633663) translate(-1071.201475, -810.033241) " x="849.718953" y="578.190066" width="442.965043" height="463.686351" rx="11.3600006"></rect>
                        <rect id="97" transform="translate(1079.803740, 816.337058) rotate(82.475248) translate(-1079.803740, -816.337058) " x="858.321219" y="584.493883" width="442.965043" height="463.686351" rx="11.3600006"></rect>
                        <rect id="98" transform="translate(1088.350089, 821.876766) rotate(83.316832) translate(-1088.350089, -821.876766) " x="866.867567" y="590.033591" width="442.965043" height="463.686351" rx="11.3600006"></rect>
                        <rect id="99" transform="translate(1097.551006, 828.073182) rotate(84.158416) translate(-1097.551006, -828.073182) " x="876.068485" y="596.230007" width="442.965043" height="463.686351" rx="11.3600006"></rect>
                        <rect id="Rectangle-12-Copy-4" transform="translate(1105.638207, 834.351242) rotate(85.000000) translate(-1105.638207, -834.351242) " x="884.155685" y="602.508066" width="442.965043" height="463.686351" rx="11.3600006"></rect>
                        <rect id="0" transform="translate(1117.706168, 837.901673) rotate(83.693069) translate(-1117.706168, -837.901673) " x="896.933527" y="606.768583" width="441.545283" height="462.266178" rx="11.3600006"></rect>
                        <rect id="1" transform="translate(1129.419189, 841.807146) rotate(82.386139) translate(-1129.419189, -841.807146) " x="909.711368" y="611.739187" width="439.415642" height="460.13592" rx="11.3600006"></rect>
                        <rect id="2" transform="translate(1140.777270, 845.357577) rotate(81.079208) translate(-1140.777270, -845.357577) " x="921.779329" y="615.999704" width="437.995882" height="458.715748" rx="11.3600006"></rect>
                        <rect id="3" transform="translate(1152.845231, 848.552965) rotate(79.772277) translate(-1152.845231, -848.552965) " x="934.55717" y="620.26022" width="436.576122" height="456.585489" rx="11.3600006"></rect>
                        <rect id="4" transform="translate(1164.558252, 852.813482) rotate(78.465347) translate(-1164.558252, -852.813482) " x="947.335011" y="625.230824" width="434.446482" height="455.165317" rx="11.3600006"></rect>
                        <rect id="5" transform="translate(1175.916334, 856.008870) rotate(77.158416) translate(-1175.916334, -856.008870) " x="959.402973" y="629.491341" width="433.026722" height="453.035058" rx="11.3600006"></rect>
                        <rect id="6" transform="translate(1187.629355, 859.559301) rotate(75.851485) translate(-1187.629355, -859.559301) " x="972.180814" y="633.751858" width="430.897082" height="451.614886" rx="11.3600006"></rect>
                        <rect id="7" transform="translate(1199.697316, 863.464774) rotate(74.544554) translate(-1199.697316, -863.464774) " x="984.958655" y="638.722461" width="429.477321" height="449.484627" rx="11.3600006"></rect>
                        <rect id="8" transform="translate(1211.055397, 867.015205) rotate(73.237624) translate(-1211.055397, -867.015205) " x="997.026616" y="642.982978" width="428.057561" height="448.064455" rx="11.3600006"></rect>
                        <rect id="9" transform="translate(1222.768418, 870.920679) rotate(71.930693) translate(-1222.768418, -870.920679) " x="1009.80446" y="647.953581" width="425.927921" height="445.934197" rx="11.3600006"></rect>
                        <rect id="10" transform="translate(1234.836379, 874.471110) rotate(70.623762) translate(-1234.836379, -874.471110) " x="1022.5823" y="652.214098" width="424.508161" height="444.514024" rx="11.3600006"></rect>
                        <rect id="11" transform="translate(1246.194460, 877.666498) rotate(69.316832) translate(-1246.194460, -877.666498) " x="1034.65026" y="656.474615" width="423.088401" height="442.383766" rx="11.3600006"></rect>
                        <rect id="12" transform="translate(1257.907481, 881.927015) rotate(68.009901) translate(-1257.907481, -881.927015) " x="1047.4281" y="661.445218" width="420.958761" height="440.963593" rx="11.3600006"></rect>
                        <rect id="13" transform="translate(1269.975443, 885.122402) rotate(66.702970) translate(-1269.975443, -885.122402) " x="1060.20594" y="665.705735" width="419.539001" height="438.833335" rx="11.3600006"></rect>
                        <rect id="14" transform="translate(1281.333524, 889.382919) rotate(65.396040) translate(-1281.333524, -889.382919) " x="1072.2739" y="670.676338" width="418.11924" height="437.413163" rx="11.3600006"></rect>
                        <rect id="15" transform="translate(1293.046545, 892.578307) rotate(64.089109) translate(-1293.046545, -892.578307) " x="1085.05174" y="674.936855" width="415.9896" height="435.282904" rx="11.3600006"></rect>
                        <rect id="16" transform="translate(1305.114506, 896.128738) rotate(62.782178) translate(-1305.114506, -896.128738) " x="1097.82959" y="679.197372" width="414.56984" height="433.862732" rx="11.3600006"></rect>
                        <rect id="17" transform="translate(1316.117647, 900.034212) rotate(61.475248) translate(-1316.117647, -900.034212) " x="1109.89755" y="684.167975" width="412.4402" height="431.732473" rx="11.3600006"></rect>
                        <rect id="18" transform="translate(1328.185608, 903.584643) rotate(60.168317) translate(-1328.185608, -903.584643) " x="1122.67539" y="688.428492" width="411.02044" height="430.312301" rx="11.3600006"></rect>
                        <rect id="19" transform="translate(1340.253569, 906.780030) rotate(58.861386) translate(-1340.253569, -906.780030) " x="1135.45323" y="692.689009" width="409.60068" height="428.182043" rx="11.3600006"></rect>
                        <rect id="20" transform="translate(1351.256710, 911.040547) rotate(57.554455) translate(-1351.256710, -911.040547) " x="1147.52119" y="697.659612" width="407.471039" height="426.76187" rx="11.3600006"></rect>
                        <rect id="21" transform="translate(1363.324672, 914.590978) rotate(56.247525) translate(-1363.324672, -914.590978) " x="1160.29903" y="701.920129" width="406.051279" height="425.341698" rx="11.3600006"></rect>
                        <rect id="22" transform="translate(1375.392633, 918.496452) rotate(54.940594) translate(-1375.392633, -918.496452) " x="1173.07687" y="706.890732" width="404.631519" height="423.211439" rx="11.3600006"></rect>
                        <rect id="23" transform="translate(1386.395774, 922.046883) rotate(53.633663) translate(-1386.395774, -922.046883) " x="1185.14483" y="711.151249" width="402.501879" height="421.791267" rx="11.3600006"></rect>
                        <rect id="24" transform="translate(1398.463735, 925.242271) rotate(52.326733) translate(-1398.463735, -925.242271) " x="1197.92268" y="715.411766" width="401.082119" height="419.661009" rx="11.3600006"></rect>
                        <rect id="25" transform="translate(1410.176756, 929.502788) rotate(51.019802) translate(-1410.176756, -929.502788) " x="1210.70052" y="720.38237" width="398.952479" height="418.240836" rx="11.3600006"></rect>
                        <rect id="26" transform="translate(1421.534837, 932.698175) rotate(49.712871) translate(-1421.534837, -932.698175) " x="1222.76848" y="724.642886" width="397.532718" height="416.110578" rx="11.3600006"></rect>
                        <rect id="27" transform="translate(1433.602798, 936.958692) rotate(48.405941) translate(-1433.602798, -936.958692) " x="1235.54632" y="729.61349" width="396.112958" height="414.690405" rx="11.3600006"></rect>
                        <rect id="28" transform="translate(1445.315820, 940.154080) rotate(47.099010) translate(-1445.315820, -940.154080) " x="1248.32416" y="733.874007" width="393.983318" height="412.560147" rx="11.3600006"></rect>
                        <rect id="29" transform="translate(1456.673901, 943.704511) rotate(45.792079) translate(-1456.673901, -943.704511) " x="1260.39212" y="738.134524" width="392.563558" height="411.139975" rx="11.3600006"></rect>
                        <rect id="30" transform="translate(1468.741862, 947.609985) rotate(44.485149) translate(-1468.741862, -947.609985) " x="1273.16996" y="743.105127" width="391.143798" height="409.009716" rx="11.3600006"></rect>
                        <rect id="31" transform="translate(1480.454883, 951.160416) rotate(43.178218) translate(-1480.454883, -951.160416) " x="1285.9478" y="747.365644" width="389.014158" height="407.589544" rx="11.3600006"></rect>
                        <rect id="32" transform="translate(1491.812964, 954.355803) rotate(41.871287) translate(-1491.812964, -954.355803) " x="1298.01577" y="751.626161" width="387.594397" height="405.459285" rx="11.3600006"></rect>
                        <rect id="33" transform="translate(1503.880925, 958.616320) rotate(40.564356) translate(-1503.880925, -958.616320) " x="1310.79361" y="756.596764" width="386.174637" height="404.039113" rx="11.3600006"></rect>
                        <rect id="34" transform="translate(1515.593946, 961.811708) rotate(39.257426) translate(-1515.593946, -961.811708) " x="1323.57145" y="760.857281" width="384.044997" height="401.908854" rx="11.3600006"></rect>
                        <rect id="35" transform="translate(1526.952027, 966.072225) rotate(37.950495) translate(-1526.952027, -966.072225) " x="1335.63941" y="765.827884" width="382.625237" height="400.488682" rx="11.3600006"></rect>
                        <rect id="36" transform="translate(1538.665049, 969.267613) rotate(36.643564) translate(-1538.665049, -969.267613) " x="1348.41725" y="770.088401" width="380.495597" height="398.358424" rx="11.3600006"></rect>
                        <rect id="37" transform="translate(1550.733010, 972.818044) rotate(35.336634) translate(-1550.733010, -972.818044) " x="1361.19509" y="774.348918" width="379.075837" height="396.938251" rx="11.3600006"></rect>
                        <rect id="38" transform="translate(1562.091091, 976.723517) rotate(34.029703) translate(-1562.091091, -976.723517) " x="1373.26305" y="779.319521" width="377.656076" height="394.807993" rx="11.3600006"></rect>
                        <rect id="39" transform="translate(1573.804112, 980.273948) rotate(32.722772) translate(-1573.804112, -980.273948) " x="1386.04089" y="783.580038" width="375.526436" height="393.387821" rx="11.3600006"></rect>
                        <rect id="40" transform="translate(1585.872073, 984.534465) rotate(31.415842) translate(-1585.872073, -984.534465) " x="1398.81874" y="788.550641" width="374.106676" height="391.967648" rx="11.3600006"></rect>
                        <rect id="41" transform="translate(1597.230154, 987.729853) rotate(30.108911) translate(-1597.230154, -987.729853) " x="1410.8867" y="792.811158" width="372.686916" height="389.83739" rx="11.3600006"></rect>
                        <rect id="42" transform="translate(1608.943175, 991.280284) rotate(28.801980) translate(-1608.943175, -991.280284) " x="1423.66454" y="797.071675" width="370.557276" height="388.417217" rx="11.3600006"></rect>
                        <rect id="43" transform="translate(1621.011136, 995.185758) rotate(27.495050) translate(-1621.011136, -995.185758) " x="1436.44238" y="802.042278" width="369.137516" height="386.286959" rx="11.3600006"></rect>
                        <rect id="44" transform="translate(1632.369218, 998.736189) rotate(26.188119) translate(-1632.369218, -998.736189) " x="1448.51034" y="806.302795" width="367.717756" height="384.866787" rx="11.3600006"></rect>
                        <rect id="45" transform="translate(1644.082239, 1001.931576) rotate(24.881188) translate(-1644.082239, -1001.931576) " x="1461.28818" y="810.563312" width="365.588115" height="382.736528" rx="11.3600006"></rect>
                        <rect id="46" transform="translate(1656.150200, 1006.192093) rotate(23.574257) translate(-1656.150200, -1006.192093) " x="1474.06602" y="815.533915" width="364.168355" height="381.316356" rx="11.3600006"></rect>
                        <rect id="47" transform="translate(1667.153341, 1009.387481) rotate(22.267327) translate(-1667.153341, -1009.387481) " x="1486.13398" y="819.794432" width="362.038715" height="379.186097" rx="11.3600006"></rect>
                        <rect id="48" transform="translate(1679.221302, 1013.647998) rotate(20.960396) translate(-1679.221302, -1013.647998) " x="1498.91182" y="824.765035" width="360.618955" height="377.765925" rx="11.3600006"></rect>
                        <rect id="49" transform="translate(1691.289263, 1016.843386) rotate(19.653465) translate(-1691.289263, -1016.843386) " x="1511.68967" y="829.025552" width="359.199195" height="375.635666" rx="11.3600006"></rect>
                        <rect id="50" transform="translate(1702.292404, 1020.393817) rotate(18.346535) translate(-1702.292404, -1020.393817) " x="1523.75763" y="833.286069" width="357.069555" height="374.215494" rx="11.3600006"></rect>
                        <rect id="51" transform="translate(1714.360366, 1024.299290) rotate(17.039604) translate(-1714.360366, -1024.299290) " x="1536.53547" y="838.256673" width="355.649794" height="372.085236" rx="11.3600006"></rect>
                        <rect id="52" transform="translate(1726.428327, 1027.849721) rotate(15.732673) translate(-1726.428327, -1027.849721) " x="1549.31331" y="842.51719" width="354.230034" height="370.665063" rx="11.3600006"></rect>
                        <rect id="53" transform="translate(1737.431468, 1031.045109) rotate(14.425743) translate(-1737.431468, -1031.045109) " x="1561.38127" y="846.777707" width="352.100394" height="368.534805" rx="11.3600006"></rect>
                        <rect id="54" transform="translate(1749.499429, 1035.305626) rotate(13.118812) translate(-1749.499429, -1035.305626) " x="1574.15911" y="851.74831" width="350.680634" height="367.114633" rx="11.3600006"></rect>
                        <rect id="55" transform="translate(1761.212450, 1038.501014) rotate(11.811881) translate(-1761.212450, -1038.501014) " x="1586.93695" y="856.008827" width="348.550994" height="364.984374" rx="11.3600006"></rect>
                        <rect id="56" transform="translate(1772.570531, 1042.761531) rotate(10.504950) translate(-1772.570531, -1042.761531) " x="1599.00491" y="860.97943" width="347.131234" height="363.564202" rx="11.3600006"></rect>
                        <rect id="57" transform="translate(1784.638492, 1045.956918) rotate(9.198020) translate(-1784.638492, -1045.956918) " x="1611.78276" y="865.239947" width="345.711473" height="361.433943" rx="11.3600006"></rect>
                        <rect id="58" transform="translate(1796.351513, 1049.507349) rotate(7.891089) translate(-1796.351513, -1049.507349) " x="1624.5606" y="869.500464" width="343.581833" height="360.013771" rx="11.3600006"></rect>
                        <rect id="59" transform="translate(1807.709595, 1053.412823) rotate(6.584158) translate(-1807.709595, -1053.412823) " x="1636.62856" y="874.471067" width="342.162073" height="357.883512" rx="11.3600006"></rect>
                        <rect id="60" transform="translate(1819.777556, 1056.963254) rotate(5.277228) translate(-1819.777556, -1056.963254) " x="1649.4064" y="878.731584" width="340.742313" height="356.46334" rx="11.3600006"></rect>
                        <rect id="61" transform="translate(1831.490577, 1061.223771) rotate(3.970297) translate(-1831.490577, -1061.223771) " x="1662.18424" y="883.702187" width="338.612673" height="355.043168" rx="11.3600006"></rect>
                        <rect id="62" transform="translate(1842.848658, 1064.419159) rotate(2.663366) translate(-1842.848658, -1064.419159) " x="1674.2522" y="887.962704" width="337.192913" height="352.912909" rx="11.3600006"></rect>
                        <rect id="63" transform="translate(1854.916619, 1067.969589) rotate(1.356436) translate(-1854.916619, -1067.969589) " x="1687.03004" y="892.223221" width="335.773152" height="351.492737" rx="11.3600006"></rect>
                        <rect id="64" transform="translate(1866.629640, 1071.875063) rotate(0.049505) translate(-1866.629640, -1071.875063) " x="1699.80788" y="897.193824" width="333.643512" height="349.362478" rx="11.3600006"></rect>
                        <rect id="65" transform="translate(1877.987721, 1075.425494) rotate(-1.257426) translate(-1877.987721, -1075.425494) " x="1711.87585" y="901.454341" width="332.223752" height="347.942306" rx="11.3600006"></rect>
                        <rect id="66" transform="translate(1889.700742, 1078.620882) rotate(-2.564356) translate(-1889.700742, -1078.620882) " x="1724.65369" y="905.714858" width="330.094112" height="345.812048" rx="11.3600006"></rect>
                        <rect id="67" transform="translate(1901.058824, 1082.881399) rotate(-3.871287) translate(-1901.058824, -1082.881399) " x="1736.72165" y="910.685461" width="328.674352" height="344.391875" rx="11.3600006"></rect>
                        <rect id="68" transform="translate(1913.126785, 1086.076787) rotate(-5.178218) translate(-1913.126785, -1086.076787) " x="1749.49949" y="914.945978" width="327.254592" height="342.261617" rx="11.3600006"></rect>
                        <rect id="69" transform="translate(1924.839806, 1090.337304) rotate(-6.485149) translate(-1924.839806, -1090.337304) " x="1762.27733" y="919.916581" width="325.124951" height="340.841444" rx="11.3600006"></rect>
                        <rect id="70" transform="translate(1936.197887, 1093.532691) rotate(-7.792079) translate(-1936.197887, -1093.532691) " x="1774.34529" y="924.177098" width="323.705191" height="338.711186" rx="11.3600006"></rect>
                        <rect id="71" transform="translate(1948.265848, 1097.083122) rotate(-9.099010) translate(-1948.265848, -1097.083122) " x="1787.12313" y="928.437615" width="322.285431" height="337.291014" rx="11.3600006"></rect>
                        <rect id="72" transform="translate(1959.978869, 1100.988596) rotate(-10.405941) translate(-1959.978869, -1100.988596) " x="1799.90097" y="933.408218" width="320.155791" height="335.160755" rx="11.3600006"></rect>
                        <rect id="73" transform="translate(1971.336950, 1104.539027) rotate(-11.712871) translate(-1971.336950, -1104.539027) " x="1811.96893" y="937.668735" width="318.736031" height="333.740583" rx="11.3600006"></rect>
                        <rect id="74" transform="translate(1983.404911, 1108.444501) rotate(-13.019802) translate(-1983.404911, -1108.444501) " x="1824.74678" y="942.639339" width="317.316271" height="331.610324" rx="11.3600006"></rect>
                        <rect id="75" transform="translate(1995.117933, 1111.994932) rotate(-14.326733) translate(-1995.117933, -1111.994932) " x="1837.52462" y="946.899856" width="315.18663" height="330.190152" rx="11.3600006"></rect>
                        <rect id="76" transform="translate(2006.476014, 1115.190319) rotate(-15.633663) translate(-2006.476014, -1115.190319) " x="1849.59258" y="951.160373" width="313.76687" height="328.059894" rx="11.3600006"></rect>
                        <rect id="77" transform="translate(2018.189035, 1119.450836) rotate(-16.940594) translate(-2018.189035, -1119.450836) " x="1862.37042" y="956.130976" width="311.63723" height="326.639721" rx="11.3600006"></rect>
                        <rect id="78" transform="translate(2030.256996, 1122.646224) rotate(-18.247525) translate(-2030.256996, -1122.646224) " x="1875.14826" y="960.391493" width="310.21747" height="324.509463" rx="11.3600006"></rect>
                        <rect id="79" transform="translate(2041.615077, 1126.196655) rotate(-19.554455) translate(-2041.615077, -1126.196655) " x="1887.21622" y="964.65201" width="308.79771" height="323.08929" rx="11.3600006"></rect>
                        <rect id="80" transform="translate(2053.328098, 1130.457172) rotate(-20.861386) translate(-2053.328098, -1130.457172) " x="1899.99406" y="969.622613" width="306.66807" height="321.669118" rx="11.3600006"></rect>
                        <rect id="81" transform="translate(2065.396059, 1133.652560) rotate(-22.168317) translate(-2065.396059, -1133.652560) " x="1912.7719" y="973.88313" width="305.248309" height="319.53886" rx="11.3600006"></rect>
                        <rect id="82" transform="translate(2076.754140, 1137.913077) rotate(-23.475248) translate(-2076.754140, -1137.913077) " x="1924.83987" y="978.853733" width="303.828549" height="318.118687" rx="11.3600006"></rect>
                        <rect id="83" transform="translate(2088.467162, 1141.108464) rotate(-24.782178) translate(-2088.467162, -1141.108464) " x="1937.61771" y="983.11425" width="301.698909" height="315.988429" rx="11.3600006"></rect>
                        <rect id="84" transform="translate(2100.535123, 1144.658895) rotate(-26.089109) translate(-2100.535123, -1144.658895) " x="1950.39555" y="987.374767" width="300.279149" height="314.568256" rx="11.3600006"></rect>
                        <rect id="85" transform="translate(2111.538264, 1148.564369) rotate(-27.396040) translate(-2111.538264, -1148.564369) " x="1962.46351" y="992.34537" width="298.149509" height="312.437998" rx="11.3600006"></rect>
                        <rect id="86" transform="translate(2123.606225, 1152.114800) rotate(-28.702970) translate(-2123.606225, -1152.114800) " x="1975.24135" y="996.605887" width="296.729749" height="311.017826" rx="11.3600006"></rect>
                        <rect id="87" transform="translate(2135.674186, 1156.020274) rotate(-30.009901) translate(-2135.674186, -1156.020274) " x="1988.01919" y="1001.57649" width="295.309989" height="308.887567" rx="11.3600006"></rect>
                        <rect id="88" transform="translate(2146.677327, 1159.570705) rotate(-31.316832) translate(-2146.677327, -1159.570705) " x="2000.08715" y="1005.83701" width="293.180348" height="307.467395" rx="11.3600006"></rect>
                        <rect id="89" transform="translate(2158.745288, 1162.766092) rotate(-32.623762) translate(-2158.745288, -1162.766092) " x="2012.86499" y="1010.09752" width="291.760588" height="305.337136" rx="11.3600006"></rect>
                        <rect id="36" transform="translate(545.592298, 452.667434) rotate(31.138614) translate(-545.592298, -452.667434) " x="324.109776" y="220.824259" width="442.965043" height="463.686351" rx="11.3600006"></rect>
                        <rect id="25" transform="translate(449.250772, 386.930183) rotate(21.881188) translate(-449.250772, -386.930183) " x="227.76825" y="155.087008" width="442.965043" height="463.686351" rx="11.3600006"></rect>
                        <rect id="26" transform="translate(458.267596, 392.911968) rotate(22.722772) translate(-458.267596, -392.911968) " x="236.785075" y="161.068793" width="442.965043" height="463.686351" rx="11.3600006"></rect>
                        <rect id="27" transform="translate(467.220930, 398.829053) rotate(23.564356) translate(-467.220930, -398.829053) " x="245.738409" y="166.985877" width="442.965043" height="463.686351" rx="11.3600006"></rect>
                    </g>
                </g>
            </g>
        </g>
    </g>
</svg>