<?xml version="1.0" encoding="UTF-8"?>
<svg width="29px" height="29px" viewBox="0 0 29 29" version="1.1" xmlns="http://www.w3.org/2000/svg" xmlns:xlink="http://www.w3.org/1999/xlink">
    <!-- Generator: Sketch 58 (84663) - https://sketch.com -->
    <title>Group 24</title>
    <desc>Created with Sketch.</desc>
    <defs>
        <polygon id="path-1" points="0 28.9915488 28.9915488 28.9915488 28.9915488 0 0 0"></polygon>
    </defs>
    <g id="Symbols" stroke="none" stroke-width="1" fill="none" fill-rule="evenodd">
        <g id="header/dark" transform="translate(-1159.000000, -10.000000)">
            <g id="Group-24" transform="translate(1159.000000, 10.000000)">
                <path d="M28.0279852,14.4957744 C28.0279852,21.9694519 21.9693876,28.0280067 14.4957101,28.0280067 C7.02207544,28.0280067 0.963477811,21.9694519 0.963477811,14.4957744 C0.963477811,7.02209689 7.02207544,0.96349926 14.4957101,0.96349926 C21.9693876,0.96349926 28.0279852,7.02209689 28.0279852,14.4957744" id="Fill-1" fill="#33A3DC"></path>
                <path d="M28.0279852,14.4957744 C28.0279852,21.9694519 21.9693876,28.0280067 14.4957101,28.0280067 C7.02207544,28.0280067 0.963477811,21.9694519 0.963477811,14.4957744 C0.963477811,7.02209689 7.02207544,0.96349926 14.4957101,0.96349926 C21.9693876,0.96349926 28.0279852,7.02209689 28.0279852,14.4957744 Z" id="Stroke-3" stroke="#33A3DC" stroke-width="0.857988166"></path>
                <path d="M7.15329615,25.8641176 C9.26819408,27.2328661 11.7890062,28.0280067 14.4957015,28.0280067 C17.2024396,28.0280067 19.7232089,27.2328661 21.8381497,25.8641176 C19.7232089,24.4953262 17.2024396,23.7001857 14.4957015,23.7001857 C11.7890062,23.7001857 9.26819408,24.4953262 7.15329615,25.8641176" id="Fill-5" fill="#231F20"></path>
                <path d="M7.15329615,25.8641176 C9.26819408,27.2328661 11.7890062,28.0280067 14.4957015,28.0280067 C17.2024396,28.0280067 19.7232089,27.2328661 21.8381497,25.8641176 C19.7232089,24.4953262 17.2024396,23.7001857 14.4957015,23.7001857 C11.7890062,23.7001857 9.26819408,24.4953262 7.15329615,25.8641176 Z" id="Stroke-7" stroke="#231F20" stroke-width="0.604166667"></path>
                <path d="M28.0279852,14.4957744 C28.0279852,21.9694519 21.9693876,28.0280067 14.4957101,28.0280067 C7.02207544,28.0280067 0.963477811,21.9694519 0.963477811,14.4957744 C0.963477811,7.02209689 7.02207544,0.96349926 14.4957101,0.96349926 C21.9693876,0.96349926 28.0279852,7.02209689 28.0279852,14.4957744 Z" id="Stroke-9" stroke="#379BD5" stroke-width="0.857988166"></path>
                <mask id="mask-2" fill="white">
                    <use xlink:href="#path-1"></use>
                </mask>
                <g id="Clip-12"></g>
                <polygon id="Fill-11" fill="#231F20" mask="url(#mask-2)" points="11.9585104 13.3108713 16.8793299 13.3108713 16.8793299 8.39005178 11.9585104 8.39005178"></polygon>
                <polygon id="Stroke-13" stroke="#231F20" stroke-width="0.729289941" stroke-linecap="square" mask="url(#mask-2)" points="11.9585104 13.3108713 16.8793299 13.3108713 16.8793299 8.39005178 11.9585104 8.39005178"></polygon>
                <path d="M26.7691578,7.79284911 L14.2383265,10.6107396 L14.4946075,11.3046805 L28.4350706,13.9314112 C28.3485425,11.7175873 27.7560587,9.63392012 26.7691578,7.79284911" id="Fill-14" fill="#FFFFFF" mask="url(#mask-2)"></path>
                <path d="M14.3835882,4.11910251 C14.2701621,4.11910251 14.1635571,4.16324601 14.0833352,4.243425 L10.5305778,7.7962253 C10.4503988,7.87640429 10.4062553,7.98305222 10.4062553,8.09643536 C10.4062553,8.20986139 10.4503988,8.31646642 10.5305778,8.39664541 L10.884026,8.75009364 C10.9641621,8.83018683 11.0705956,8.87433033 11.18385,8.87433033 C11.2126784,8.87433033 11.2416355,8.87132737 11.2699062,8.86549305 C12.2889388,8.65455666 13.3365852,8.54756553 14.3835882,8.54756553 C15.4312775,8.54756553 16.4788382,8.65455666 17.4971843,8.86549305 C17.5254121,8.87132737 17.5544121,8.87433033 17.5832834,8.87433033 C17.6965379,8.87433033 17.8030142,8.83018683 17.8831503,8.75009364 L18.2365556,8.39664541 C18.4021044,8.2311395 18.4021044,7.96177411 18.2365985,7.7962253 L14.6837982,4.243425 C14.6036192,4.16324601 14.4970142,4.11910251 14.3835882,4.11910251 M14.3835882,4.46229778 C14.4043944,4.46229778 14.4252435,4.47023417 14.4411163,4.48610695 L17.9939166,8.03890725 C18.0256621,8.07069571 18.0256621,8.122175 17.9939166,8.15400636 L17.6404683,8.50741169 C17.6251533,8.52276967 17.6045186,8.53109216 17.5832834,8.53109216 C17.5777923,8.53109216 17.5723012,8.53057737 17.5668101,8.52941908 C16.5390689,8.31655222 15.4744343,8.20437027 14.3835882,8.20437027 C13.2908115,8.20437027 12.2069151,8.32105666 11.2002805,8.52941908 C11.1947893,8.53057737 11.1892982,8.53113506 11.18385,8.53113506 C11.1626148,8.53113506 11.1420231,8.52276967 11.126708,8.50741169 L10.7732598,8.15400636 C10.7414713,8.122175 10.7414713,8.07069571 10.7732598,8.03890725 L14.3260601,4.48610695 C14.3419328,4.47023417 14.362782,4.46229778 14.3835882,4.46229778" id="Fill-15" fill="#33A3DC" mask="url(#mask-2)"></path>
                <polygon id="Fill-16" fill="#231F20" mask="url(#mask-2)" points="18.5602059 26.1215141 17.5101571 13.1216635 11.3276231 13.1216635 10.2776601 26.1215141"></polygon>
                <path d="M18.5602059,26.1215141 L17.5165062,13.2005555 C17.5129027,13.155983 17.4757089,13.1216635 17.4310077,13.1216635 L11.4067725,13.1216635 C11.3620713,13.1216635 11.3248346,13.155983 11.3212311,13.2005555 L10.2776601,26.1215141 L18.5602059,26.1215141 Z" id="Stroke-17" stroke="#231F20" stroke-width="0.604166667" mask="url(#mask-2)"></path>
                <path d="M11.9729889,13.8212413 L11.2349046,23.7465342" id="Stroke-18" stroke="#33A3DC" stroke-width="0.604166667" stroke-linecap="round" stroke-linejoin="round" mask="url(#mask-2)"></path>
                <path d="M27.5232479,14.4957744 C27.5232479,21.6907345 21.6906873,27.5232951 14.4956843,27.5232951 C7.30081006,27.5232951 1.46816361,21.6907345 1.46816361,14.4957744 C1.46816361,7.30081435 7.30081006,1.4681679 14.4956843,1.4681679 C21.6906873,1.4681679 27.5232479,7.30081435 27.5232479,14.4957744 Z" id="Stroke-19" stroke="#FFFFFF" stroke-width="0.604166667" mask="url(#mask-2)"></path>
                <path d="M28.1278207,13.8604513 C28.0433518,11.6978493 27.4645959,9.66231524 26.5004746,7.86371464 L17.1218059,9.97282115 L15.8929953,10.2491791 C15.8661831,10.2551851 15.8407009,10.2348078 15.8407009,10.2073093 L15.8407009,9.78882559 C15.8407009,9.59929601 15.6870352,9.44563033 15.4975056,9.44563033 L14.5785574,9.44563033 L13.3735559,9.44563033 C13.1840263,9.44563033 13.0303607,9.59929601 13.0303607,9.78882559 L13.0303607,11.933796 C13.0303607,12.1117428 13.1746314,12.2559706 13.3525352,12.2559706 L15.5185263,12.2559706 C15.6964731,12.2559706 15.8407009,12.1117428 15.8407009,11.933796 L15.8407009,11.545299 L28.1278207,13.8604513 Z" id="Fill-20" fill="#FFFFFF" mask="url(#mask-2)"></path>
                <path d="M28.3423178,13.8604513 C28.2578488,11.6978493 27.6790929,9.66231524 26.7149716,7.86371464 L17.1218059,9.97282115 L15.8929953,10.2491791 C15.8661831,10.2551851 15.8407009,10.2348078 15.8407009,10.2073093 L15.8407009,9.78882559 C15.8407009,9.59929601 15.6870352,9.44563033 15.4975056,9.44563033 L14.5785574,9.44563033 L13.3735559,9.44563033 C13.1840263,9.44563033 13.0303607,9.59929601 13.0303607,9.78882559 L13.0303607,11.9127753 C13.0303607,12.1023049 13.1840263,12.2559706 13.3735559,12.2559706 L15.4975056,12.2559706 C15.6870352,12.2559706 15.8407009,12.1023049 15.8407009,11.9127753 L15.8407009,11.5968641 C15.8407009,11.5700519 15.8650249,11.5498034 15.891408,11.5546939 L28.3423178,13.8604513 Z" id="Stroke-21" stroke="#33A3DC" stroke-width="0.604166667" stroke-linecap="square" mask="url(#mask-2)"></path>
                <path d="M28.5625547,14.4957315 C28.5625547,22.2646428 22.2646213,28.5625333 14.4957101,28.5625333 C6.72688462,28.5625333 0.428994083,22.2646428 0.428994083,14.4957315 C0.428994083,6.72686317 6.72688462,0.429015533 14.4957101,0.429015533 C22.2646213,0.429015533 28.5625547,6.72686317 28.5625547,14.4957315 Z" id="Stroke-22" stroke="#231F20" stroke-width="0.857988166" mask="url(#mask-2)"></path>
                <path d="M14.3835882,8.29712308 C15.5336784,8.29712308 16.6560985,8.41535385 17.7396518,8.63980355 C17.7678367,8.64563787 17.7969654,8.63697219 17.8173426,8.61659497 L18.1899669,8.24397071 C18.2234713,8.21046627 18.2234713,8.15615562 18.1899669,8.12265118 L14.4442479,4.37693225 C14.4107435,4.34342781 14.3564328,4.34342781 14.3229284,4.37693225 L10.5772095,8.12265118 C10.543705,8.15615562 10.543705,8.21046627 10.5772095,8.24397071 L10.9498337,8.61659497 C10.9702109,8.63697219 10.9992538,8.64568077 11.0274388,8.63980355 C12.0887272,8.42011568 13.2314817,8.29712308 14.3835882,8.29712308" id="Fill-23" fill="#231F20" mask="url(#mask-2)"></path>
            </g>
        </g>
    </g>
</svg>